{
  "accessors": [
    {
      "bufferView": 2,
      "componentType": 5126,
      "count": 13,
      "max": [
        0.28787311911582947,
        -2.4249610900878906,
        3.259699821472168
      ],
      "min": [
        -0.5901837348937988,
        -3.108490228652954,
        1.8249958753585815
      ],
      "type": "VEC3"
    },
    {
      "bufferView": 2,
      "byteOffset": 156,
      "componentType": 5126,
      "count": 13,
      "max": [
        0.031259093433618546,
        0.25329160690307617,
        0.9921576976776123
      ],
      "min": [
        -0.79586261510849,
        -0.8658876419067383,
        -0.5582402944564819
      ],
      "type": "VEC3"
    },
    {
      "bufferView": 1,
      "componentType": 5126,
      "count": 13,
      "max": [
        0.0,
        0.0
      ],
      "min": [
        0.0,
        0.0
      ],
      "type": "VEC2"
    },
    {
      "bufferView": 0,
      "componentType": 5125,
      "count": 18,
      "type": "SCALAR"
    },
    {
      "bufferView": 2,
      "byteOffset": 312,
      "componentType": 5126,
      "count": 38553,
      "max": [
        1.0937931537628174,
        -1.5869498252868652,
        3.4422168731689453
      ],
      "min": [
        -0.8211346864700317,
        -3.5370423793792725,
        1.5097721815109253
      ],
      "type": "VEC3"
    },
    {
      "bufferView": 2,
      "byteOffset": 462948,
      "componentType": 5126,
      "count": 38553,
      "max": [
        0.9999790787696838,
        0.9999998807907104,
        0.9999986290931702
      ],
      "min": [
        -0.9999550580978394,
        -0.9999269843101501,
        -0.9999975562095642
      ],
      "type": "VEC3"
    },
    {
      "bufferView": 1,
      "byteOffset": 104,
      "componentType": 5126,
      "count": 38553,
      "max": [
        0.9916790127754211,
        0.9919009804725647
      ],
      "min": [
        0.008101999759674072,
        0.00872000027447939
      ],
      "type": "VEC2"
    },
    {
      "bufferView": 0,
      "byteOffset": 72,
      "componentType": 5125,
      "count": 198933,
      "type": "SCALAR"
    },
    {
      "bufferView": 2,
      "byteOffset": 925584,
      "componentType": 5126,
      "count": 5,
      "max": [
        0.8441738486289978,
        -2.5596256256103516,
        1.9687201976776123
      ],
      "min": [
        0.8363307118415833,
        -2.562568187713623,
        1.9612499475479126
      ],
      "type": "VEC3"
    },
    {
      "bufferView": 2,
      "byteOffset": 925644,
      "componentType": 5126,
      "count": 5,
      "max": [
        0.7018112540245056,
        -0.3814173936843872,
        -0.5878689885139465
      ],
      "min": [
        0.5370177626609802,
        -0.46973398327827454,
        -0.7385504841804504
      ],
      "type": "VEC3"
    },
    {
      "bufferView": 1,
      "byteOffset": 308528,
      "componentType": 5126,
      "count": 5,
      "max": [
        0.0,
        0.0
      ],
      "min": [
        0.0,
        0.0
      ],
      "type": "VEC2"
    },
    {
      "bufferView": 0,
      "byteOffset": 795804,
      "componentType": 5125,
      "count": 6,
      "type": "SCALAR"
    },
    {
      "bufferView": 2,
      "byteOffset": 925704,
      "componentType": 5126,
      "count": 47271,
      "max": [
        1.093737006187439,
        -1.5869498252868652,
        3.4431285858154297
      ],
      "min": [
        -0.8170680403709412,
        -3.583289861679077,
        1.523699164390564
      ],
      "type": "VEC3"
    },
    {
      "bufferView": 2,
      "byteOffset": 1492956,
      "componentType": 5126,
      "count": 47271,
      "max": [
        0.9999908208847046,
        0.9998253583908081,
        0.9999805688858032
      ],
      "min": [
        -0.9999805092811584,
        -0.9999269843101501,
        -0.9999975562095642
      ],
      "type": "VEC3"
    },
    {
      "bufferView": 1,
      "byteOffset": 308568,
      "componentType": 5126,
      "count": 47271,
      "max": [
        0.9916700124740601,
        0.9919379949569702
      ],
      "min": [
        0.008070000447332859,
        0.00813200045377016
      ],
      "type": "VEC2"
    },
    {
      "bufferView": 0,
      "byteOffset": 795828,
      "componentType": 5125,
      "count": 224340,
      "type": "SCALAR"
    },
    {
      "bufferView": 2,
      "byteOffset": 2060208,
      "componentType": 5126,
      "count": 13629,
      "max": [
        1.0804870128631592,
        -1.5869498252868652,
        3.429471969604492
      ],
      "min": [
        -0.812271773815155,
        -3.5753493309020996,
        1.5119473934173584
      ],
      "type": "VEC3"
    },
    {
      "bufferView": 2,
      "byteOffset": 2223756,
      "componentType": 5126,
      "count": 13629,
      "max": [
        0.9998863339424133,
        0.9983780384063721,
        0.9998211860656738
      ],
      "min": [
        -0.9998974800109863,
        -0.9998937845230103,
        -0.9999653697013855
      ],
      "type": "VEC3"
    },
    {
      "bufferView": 1,
      "byteOffset": 686736,
      "componentType": 5126,
      "count": 13629,
      "max": [
        0.9916989803314209,
        0.9919360280036926
      ],
      "min": [
        0.008061000145971775,
        0.2966670095920563
      ],
      "type": "VEC2"
    },
    {
      "bufferView": 0,
      "byteOffset": 1693188,
      "componentType": 5125,
      "count": 45516,
      "type": "SCALAR"
    },
    {
      "bufferView": 2,
      "byteOffset": 2387304,
      "componentType": 5126,
      "count": 3794,
      "max": [
        0.9145165681838989,
        -1.5869495868682861,
        3.221555471420288
      ],
      "min": [
        -0.6382952332496643,
        -1.5869498252868652,
        1.6977647542953491
      ],
      "type": "VEC3"
    },
    {
      "bufferView": 2,
      "byteOffset": 2432832,
      "componentType": 5126,
      "count": 3794,
      "max": [
        0.9933342933654785,
        1.0,
        0.9913637638092041
      ],
      "min": [
        -0.957342267036438,
        -0.09057072550058365,
        -0.9999117851257324
      ],
      "type": "VEC3"
    },
    {
      "bufferView": 1,
      "byteOffset": 795768,
      "componentType": 5126,
      "count": 3794,
      "max": [
        0.0,
        0.0
      ],
      "min": [
        0.0,
        0.0
      ],
      "type": "VEC2"
    },
    {
      "bufferView": 0,
      "byteOffset": 1875252,
      "componentType": 5125,
      "count": 20844,
      "type": "SCALAR"
    }
  ],
  "asset": {
    "extras": {
      "author": "jtressle (https://sketchfab.com/jtressle)",
      "license": "CC-BY-4.0 (http://creativecommons.org/licenses/by/4.0/)",
      "source": "https://sketchfab.com/3d-models/extra-chocolate-marshmallow-cupcake-43b8a378e7a74898855fe0075215aa48",
      "title": "Extra Chocolate Marshmallow Cupcake"
    },
    "generator": "Sketchfab-12.67.0",
    "version": "2.0"
  },
  "bufferViews": [
    {
      "buffer": 0,
      "byteLength": 1958628,
      "name": "floatBufferViews",
      "target": 34963
    },
    {
      "buffer": 0,
      "byteLength": 826120,
      "byteOffset": 1958628,
      "byteStride": 8,
      "name": "floatBufferViews",
      "target": 34962
    },
    {
      "buffer": 0,
      "byteLength": 2478360,
      "byteOffset": 2784748,
      "byteStride": 12,
      "name": "floatBufferViews",
      "target": 34962
    }
  ],
  "buffers": [
    {
      "byteLength": 5263108,
      "uri": "scene.bin"
    }
  ],
  "extensionsUsed": [
    "KHR_materials_unlit"
  ],
  "images": [
    {
      "uri": "textures/material_0_baseColor.jpeg"
    },
    {
      "uri": "textures/material_1_baseColor.jpeg"
    },
    {
      "uri": "textures/material_2_baseColor.jpeg"
    }
  ],
  "materials": [
    {
      "doubleSided": true,
      "extensions": {
        "KHR_materials_unlit": {}
      },
      "name": "material_0",
      "pbrMetallicRoughness": {
        "baseColorTexture": {
          "index": 0
        },
        "metallicFactor": 0.0
      }
    },
    {
      "doubleSided": true,
      "extensions": {
        "KHR_materials_unlit": {}
      },
      "name": "material_1",
      "pbrMetallicRoughness": {
        "baseColorTexture": {
          "index": 1
        },
        "metallicFactor": 0.0
      }
    },
    {
      "doubleSided": true,
      "extensions": {
        "KHR_materials_unlit": {}
      },
      "name": "material_2",
      "pbrMetallicRoughness": {
        "baseColorTexture": {
          "index": 2
        },
        "metallicFactor": 0.0
      }
    }
  ],
  "meshes": [
    {
      "name": "Object_0",
      "primitives": [
        {
          "attributes": {
            "NORMAL": 1,
            "POSITION": 0,
            "TEXCOORD_0": 2
          },
          "indices": 3,
          "material": 0,
          "mode": 4
        }
      ]
    },
    {
      "name": "Object_1",
      "primitives": [
        {
          "attributes": {
            "NORMAL": 5,
            "POSITION": 4,
            "TEXCOORD_0": 6
          },
          "indices": 7,
          "material": 0,
          "mode": 4
        }
      ]
    },
    {
      "name": "Object_2",
      "primitives": [
        {
          "attributes": {
            "NORMAL": 9,
            "POSITION": 8,
            "TEXCOORD_0": 10
          },
          "indices": 11,
          "material": 1,
          "mode": 4
        }
      ]
    },
    {
      "name": "Object_3",
      "primitives": [
        {
          "attributes": {
            "NORMAL": 13,
            "POSITION": 12,
            "TEXCOORD_0": 14
          },
          "indices": 15,
          "material": 1,
          "mode": 4
        }
      ]
    },
    {
      "name": "Object_4",
      "primitives": [
        {
          "attributes": {
            "NORMAL": 17,
            "POSITION": 16,
            "TEXCOORD_0": 18
          },
          "indices": 19,
          "material": 2,
          "mode": 4
        }
      ]
    },
    {
      "name": "Object_5",
      "primitives": [
        {
          "attributes": {
            "NORMAL": 21,
            "POSITION": 20,
            "TEXCOORD_0": 22
          },
          "indices": 23,
          "material": 2,
          "mode": 4
        }
      ]
    }
  ],
  "nodes": [
    {
      "children": [
        1
      ],
      "matrix": [
        1.0,
        4.8033446892643715e-32,
        -1.6081226229577292e-16,
        0.0,
        -1.232595164407831e-32,
        -1.0,
        -4.440892098500626e-16,
        0.0,
        -1.6081226229577292e-16,
        4.440892098500626e-16,
        -1.0,
        0.0,
        3.885780586188048e-16,
        -0.10866934061050527,
        5.061570167541504,
        1.0
      ],
      "name": "Sketchfab_model"
    },
    {
      "children": [
        2,
        3,
        4,
        5,
        6,
        7
      ],
      "name": "model_edited.obj.cleaner.materialmerger.gles"
    },
    {
      "mesh": 0,
      "name": "Object_2"
    },
    {
      "mesh": 1,
      "name": "Object_3"
    },
    {
      "mesh": 2,
      "name": "Object_4"
    },
    {
      "mesh": 3,
      "name": "Object_5"
    },
    {
      "mesh": 4,
      "name": "Object_6"
    },
    {
      "mesh": 5,
      "name": "Object_7"
    }
  ],
  "samplers": [
    {
      "magFilter": 9729,
      "minFilter": 9987,
      "wrapS": 10497,
      "wrapT": 10497
    }
  ],
  "scene": 0,
  "scenes": [
    {
      "name": "Sketchfab_Scene",
      "nodes": [
        0
      ]
    }
  ],
  "textures": [
    {
      "sampler": 0,
      "source": 0
    },
    {
      "sampler": 0,
      "source": 1
    },
    {
      "sampler": 0,
      "source": 2
    }
  ]
}
